<svg id="svg" version="1.1" xmlns="http://www.w3.org/2000/svg" xmlns:xlink="http://www.w3.org/1999/xlink" width="400" height="400" viewBox="0, 0, 400,400"><g id="svgg"><path id="path0" d="M84.257 20.200 C 83.800 20.657,82.657 20.800,79.452 20.800 C 77.080 20.800,75.139 20.974,75.000 21.200 C 74.864 21.420,73.784 21.600,72.600 21.600 C 71.416 21.600,70.336 21.780,70.200 22.000 C 70.064 22.220,69.254 22.400,68.400 22.400 C 67.546 22.400,66.749 22.559,66.629 22.754 C 66.508 22.948,65.598 23.229,64.605 23.378 C 63.612 23.527,62.800 23.818,62.800 24.025 C 62.800 24.231,62.170 24.400,61.400 24.400 C 60.630 24.400,60.000 24.580,60.000 24.800 C 60.000 25.020,59.460 25.200,58.800 25.200 C 58.140 25.200,57.600 25.380,57.600 25.600 C 57.600 25.820,57.150 26.000,56.600 26.000 C 55.978 26.000,55.600 26.227,55.600 26.600 C 55.600 27.019,55.178 27.200,54.200 27.200 C 53.430 27.200,52.800 27.380,52.800 27.600 C 52.800 27.820,52.440 28.000,52.000 28.000 C 51.560 28.000,51.200 28.180,51.200 28.400 C 51.200 28.620,50.750 28.800,50.200 28.800 C 49.578 28.800,49.200 29.027,49.200 29.400 C 49.200 29.773,48.822 30.000,48.200 30.000 C 47.650 30.000,47.200 30.180,47.200 30.400 C 47.200 30.620,46.840 30.800,46.400 30.800 C 45.960 30.800,45.600 30.980,45.600 31.200 C 45.600 31.420,45.330 31.600,45.000 31.600 C 44.670 31.600,44.400 31.780,44.400 32.000 C 44.400 32.220,44.124 32.400,43.787 32.400 C 43.451 32.400,43.071 32.670,42.945 33.000 C 42.818 33.330,42.323 33.600,41.846 33.600 C 41.368 33.600,40.717 33.960,40.400 34.400 C 40.083 34.840,39.599 35.200,39.325 35.200 C 39.051 35.200,38.197 35.830,37.427 36.600 C 36.657 37.370,35.776 38.000,35.469 38.000 C 35.163 38.000,34.574 38.450,34.161 39.000 C 33.748 39.550,33.265 40.000,33.087 40.000 C 32.616 40.000,30.800 41.891,30.800 42.382 C 30.800 42.612,30.440 42.800,30.000 42.800 C 29.560 42.800,29.200 42.980,29.200 43.200 C 29.200 43.420,29.007 43.600,28.771 43.600 C 28.218 43.600,27.200 44.618,27.200 45.171 C 27.200 45.407,27.012 45.600,26.782 45.600 C 26.239 45.600,24.400 47.439,24.400 47.982 C 24.400 48.212,24.220 48.400,24.000 48.400 C 23.780 48.400,23.600 48.645,23.600 48.944 C 23.600 49.243,23.150 49.826,22.600 50.239 C 22.050 50.652,21.600 51.140,21.600 51.324 C 21.600 51.731,20.566 52.800,20.173 52.800 C 19.756 52.800,18.827 54.115,18.813 54.727 C 18.806 55.017,18.170 55.848,17.400 56.574 C 16.630 57.300,16.000 58.106,16.000 58.364 C 16.000 58.622,15.640 59.220,15.200 59.692 C 14.760 60.164,14.400 60.877,14.400 61.275 C 14.400 61.674,14.130 62.000,13.800 62.000 C 13.467 62.000,13.200 62.356,13.200 62.800 C 13.200 63.240,13.020 63.600,12.800 63.600 C 12.580 63.600,12.400 63.870,12.400 64.200 C 12.400 64.530,12.220 64.800,12.000 64.800 C 11.780 64.800,11.600 65.141,11.600 65.557 C 11.600 65.974,11.330 66.418,11.000 66.545 C 10.670 66.671,10.400 67.141,10.400 67.587 C 10.400 68.034,10.220 68.400,10.000 68.400 C 9.780 68.400,9.600 68.850,9.600 69.400 C 9.600 69.950,9.420 70.400,9.200 70.400 C 8.980 70.400,8.800 70.760,8.800 71.200 C 8.800 71.640,8.620 72.000,8.400 72.000 C 8.180 72.000,8.000 72.373,8.000 72.829 C 8.000 73.284,7.730 73.927,7.400 74.257 C 7.070 74.587,6.800 75.294,6.800 75.829 C 6.800 76.363,6.620 76.800,6.400 76.800 C 6.180 76.800,6.000 77.340,6.000 78.000 C 6.000 78.660,5.820 79.200,5.600 79.200 C 5.380 79.200,5.200 79.811,5.200 80.557 C 5.200 81.395,4.970 82.003,4.600 82.145 C 4.206 82.296,4.000 82.920,4.000 83.964 C 4.000 84.838,3.820 85.664,3.600 85.800 C 3.380 85.936,3.200 86.667,3.200 87.424 C 3.200 88.181,3.020 88.800,2.800 88.800 C 2.575 88.800,2.400 89.922,2.400 91.367 C 2.400 93.065,2.231 93.990,1.900 94.100 C 1.558 94.214,1.358 95.516,1.265 98.233 C 1.191 100.415,0.966 102.371,0.765 102.580 C 0.261 103.105,0.293 114.687,0.800 115.000 C 1.020 115.136,1.200 116.844,1.200 118.795 C 1.200 121.415,1.357 122.500,1.800 122.943 C 2.212 123.354,2.400 124.368,2.400 126.171 C 2.400 127.657,2.574 128.800,2.800 128.800 C 3.020 128.800,3.200 129.509,3.200 130.376 C 3.200 131.243,3.380 132.064,3.600 132.200 C 3.820 132.336,4.000 133.054,4.000 133.795 C 4.000 134.536,4.270 135.413,4.600 135.743 C 4.930 136.073,5.200 136.716,5.200 137.171 C 5.200 137.627,5.380 138.000,5.600 138.000 C 5.820 138.000,6.000 138.630,6.000 139.400 C 6.000 140.170,6.180 140.800,6.400 140.800 C 6.620 140.800,6.800 141.346,6.800 142.013 C 6.800 142.721,7.049 143.321,7.400 143.455 C 7.730 143.582,8.000 144.016,8.000 144.419 C 8.000 144.823,8.180 145.264,8.400 145.400 C 8.620 145.536,8.800 145.997,8.800 146.424 C 8.800 146.851,8.980 147.200,9.200 147.200 C 9.420 147.200,9.600 147.650,9.600 148.200 C 9.600 148.750,9.780 149.200,10.000 149.200 C 10.220 149.200,10.400 149.560,10.400 150.000 C 10.400 150.444,10.667 150.800,11.000 150.800 C 11.373 150.800,11.600 151.178,11.600 151.800 C 11.600 152.350,11.746 152.800,11.925 152.800 C 12.104 152.800,12.498 153.430,12.800 154.200 C 13.102 154.970,13.586 155.600,13.875 155.600 C 14.164 155.600,14.400 155.960,14.400 156.400 C 14.400 156.840,14.580 157.200,14.800 157.200 C 15.020 157.200,15.200 157.535,15.200 157.944 C 15.200 158.353,15.830 159.356,16.600 160.173 C 17.370 160.989,18.000 161.808,18.000 161.992 C 18.000 162.176,18.810 163.160,19.800 164.179 C 20.790 165.197,21.600 166.193,21.600 166.392 C 21.600 166.590,22.410 167.575,23.400 168.579 C 24.390 169.583,25.200 170.506,25.200 170.631 C 25.200 170.941,26.283 172.000,26.600 172.000 C 27.015 172.000,28.000 173.105,28.000 173.571 C 28.000 173.807,28.143 174.000,28.317 174.000 C 28.491 174.000,29.526 174.809,30.617 175.798 C 31.708 176.787,32.785 177.597,33.012 177.598 C 33.238 177.599,33.683 177.960,34.000 178.400 C 34.317 178.840,34.724 179.200,34.905 179.200 C 35.256 179.200,35.863 179.662,37.401 181.100 C 37.930 181.595,38.475 182.000,38.610 182.000 C 38.746 182.000,39.108 182.225,39.415 182.500 C 40.824 183.764,41.214 184.000,41.895 184.000 C 42.296 184.000,42.883 184.360,43.200 184.800 C 43.517 185.240,44.187 185.600,44.688 185.600 C 45.232 185.600,45.600 185.842,45.600 186.200 C 45.600 186.533,45.956 186.800,46.400 186.800 C 46.840 186.800,47.200 186.980,47.200 187.200 C 47.200 187.420,47.650 187.600,48.200 187.600 C 48.750 187.600,49.200 187.780,49.200 188.000 C 49.200 188.220,49.541 188.400,49.957 188.400 C 50.374 188.400,50.818 188.670,50.945 189.000 C 51.071 189.330,51.541 189.600,51.987 189.600 C 52.434 189.600,52.800 189.780,52.800 190.000 C 52.800 190.220,53.250 190.400,53.800 190.400 C 54.350 190.400,54.800 190.580,54.800 190.800 C 54.800 191.020,55.325 191.200,55.967 191.200 C 56.608 191.200,57.200 191.399,57.281 191.642 C 57.442 192.126,60.183 193.184,61.300 193.194 C 61.685 193.197,62.000 193.380,62.000 193.600 C 62.000 193.820,62.810 194.000,63.800 194.000 C 64.790 194.000,65.600 194.180,65.600 194.400 C 65.600 194.620,66.391 194.800,67.357 194.800 C 68.550 194.800,69.188 194.993,69.345 195.400 C 69.511 195.833,70.190 196.000,71.787 196.000 C 73.004 196.000,74.000 196.180,74.000 196.400 C 74.000 196.633,75.333 196.800,77.200 196.800 C 79.067 196.800,80.400 196.967,80.400 197.200 C 80.400 197.455,83.667 197.600,89.400 197.600 C 95.133 197.600,98.400 197.455,98.400 197.200 C 98.400 196.967,99.725 196.800,101.576 196.800 C 103.323 196.800,104.864 196.620,105.000 196.400 C 105.136 196.180,106.227 196.000,107.424 196.000 C 109.092 196.000,109.600 195.860,109.600 195.400 C 109.600 194.956,110.067 194.800,111.400 194.800 C 112.390 194.800,113.200 194.620,113.200 194.400 C 113.200 194.180,114.010 194.000,115.000 194.000 C 115.990 194.000,116.800 193.820,116.800 193.600 C 116.800 193.380,117.115 193.197,117.500 193.194 C 118.617 193.184,121.358 192.126,121.519 191.642 C 121.600 191.399,122.282 191.200,123.033 191.200 C 123.785 191.200,124.400 191.020,124.400 190.800 C 124.400 190.580,124.760 190.400,125.200 190.400 C 125.640 190.400,126.000 190.220,126.000 190.000 C 126.000 189.780,126.450 189.600,127.000 189.600 C 127.622 189.600,128.000 189.373,128.000 189.000 C 128.000 188.627,128.378 188.400,129.000 188.400 C 129.550 188.400,130.000 188.220,130.000 188.000 C 130.000 187.780,130.360 187.600,130.800 187.600 C 131.240 187.600,131.600 187.420,131.600 187.200 C 131.600 186.980,132.050 186.800,132.600 186.800 C 133.222 186.800,133.600 186.573,133.600 186.200 C 133.600 185.867,133.956 185.600,134.400 185.600 C 134.840 185.600,135.200 185.420,135.200 185.200 C 135.200 184.980,135.470 184.800,135.800 184.800 C 136.130 184.800,136.400 184.620,136.400 184.400 C 136.400 184.180,136.760 184.000,137.200 184.000 C 137.640 184.000,138.000 183.832,138.000 183.627 C 138.000 183.422,138.401 183.127,138.892 182.971 C 139.383 182.815,140.265 182.173,140.852 181.544 C 141.440 180.915,142.184 180.400,142.504 180.400 C 142.825 180.400,143.426 179.950,143.839 179.400 C 144.252 178.850,144.735 178.400,144.912 178.400 C 145.257 178.400,145.869 177.933,147.401 176.500 C 147.930 176.005,148.470 175.600,148.600 175.600 C 149.006 175.600,150.800 173.658,150.800 173.218 C 150.800 172.988,150.988 172.800,151.218 172.800 C 151.664 172.800,153.600 171.004,153.600 170.590 C 153.600 170.264,154.672 169.200,155.000 169.200 C 155.328 169.200,156.400 168.136,156.400 167.810 C 156.400 167.675,156.805 167.130,157.300 166.601 C 158.644 165.164,159.200 164.461,159.200 164.199 C 159.200 164.069,159.605 163.530,160.100 163.001 C 161.538 161.463,162.000 160.856,162.000 160.505 C 162.000 160.324,162.360 159.917,162.800 159.600 C 163.240 159.283,163.600 158.613,163.600 158.112 C 163.600 157.568,163.842 157.200,164.200 157.200 C 164.533 157.200,164.800 156.844,164.800 156.400 C 164.800 155.960,164.980 155.600,165.200 155.600 C 165.420 155.600,165.600 155.330,165.600 155.000 C 165.600 154.670,165.780 154.400,166.000 154.400 C 166.220 154.400,166.400 154.059,166.400 153.643 C 166.400 153.226,166.670 152.782,167.000 152.655 C 167.330 152.529,167.600 152.059,167.600 151.613 C 167.600 151.166,167.780 150.800,168.000 150.800 C 168.220 150.800,168.400 150.440,168.400 150.000 C 168.400 149.560,168.580 149.200,168.800 149.200 C 169.020 149.200,169.200 148.750,169.200 148.200 C 169.200 147.650,169.380 147.200,169.600 147.200 C 169.820 147.200,170.000 146.859,170.000 146.443 C 170.000 146.026,170.270 145.582,170.600 145.455 C 170.930 145.329,171.200 144.859,171.200 144.413 C 171.200 143.966,171.380 143.600,171.600 143.600 C 171.820 143.600,172.000 142.970,172.000 142.200 C 172.000 141.430,172.180 140.800,172.400 140.800 C 172.620 140.800,172.800 140.427,172.800 139.971 C 172.800 139.516,173.070 138.873,173.400 138.543 C 173.730 138.213,174.000 137.506,174.000 136.971 C 174.000 136.437,174.180 136.000,174.400 136.000 C 174.620 136.000,174.800 135.190,174.800 134.200 C 174.800 133.210,174.980 132.400,175.200 132.400 C 175.420 132.400,175.600 131.609,175.600 130.643 C 175.600 129.450,175.793 128.812,176.200 128.655 C 176.622 128.493,176.800 127.835,176.800 126.436 C 176.800 125.342,176.980 124.336,177.200 124.200 C 177.420 124.064,177.600 122.343,177.600 120.376 C 177.600 118.259,177.763 116.800,178.000 116.800 C 178.253 116.800,178.400 113.875,178.400 108.824 C 178.400 103.937,178.245 100.751,178.000 100.600 C 177.780 100.464,177.600 98.923,177.600 97.176 C 177.600 95.325,177.433 94.000,177.200 94.000 C 176.980 94.000,176.800 93.044,176.800 91.876 C 176.800 90.629,176.558 89.433,176.213 88.976 C 175.890 88.549,175.620 87.536,175.613 86.724 C 175.606 85.912,175.420 85.136,175.200 85.000 C 174.980 84.864,174.800 84.133,174.800 83.376 C 174.800 82.619,174.620 82.000,174.400 82.000 C 174.180 82.000,174.000 81.454,174.000 80.787 C 174.000 80.079,173.751 79.479,173.400 79.345 C 173.058 79.213,172.800 78.617,172.800 77.957 C 172.800 77.321,172.620 76.800,172.400 76.800 C 172.180 76.800,172.000 76.170,172.000 75.400 C 172.000 74.630,171.820 74.000,171.600 74.000 C 171.380 74.000,171.200 73.634,171.200 73.187 C 171.200 72.741,170.930 72.271,170.600 72.145 C 170.270 72.018,170.000 71.574,170.000 71.157 C 170.000 70.741,169.820 70.400,169.600 70.400 C 169.380 70.400,169.200 69.950,169.200 69.400 C 169.200 68.850,169.020 68.400,168.800 68.400 C 168.580 68.400,168.400 68.027,168.400 67.571 C 168.400 67.116,168.175 66.492,167.900 66.185 C 166.713 64.862,166.400 64.409,166.400 64.017 C 166.400 63.788,166.220 63.600,166.000 63.600 C 165.780 63.600,165.600 63.240,165.600 62.800 C 165.600 62.360,165.420 62.000,165.200 62.000 C 164.980 62.000,164.800 61.665,164.800 61.256 C 164.800 60.847,164.350 60.174,163.800 59.761 C 163.250 59.348,162.800 58.738,162.800 58.405 C 162.799 57.661,161.075 55.600,160.453 55.600 C 160.204 55.600,160.000 55.232,160.000 54.782 C 160.000 53.931,158.347 52.000,157.618 52.000 C 157.388 52.000,157.200 51.730,157.200 51.400 C 157.200 51.070,157.064 50.800,156.898 50.800 C 156.731 50.800,156.356 50.260,156.064 49.600 C 155.772 48.940,155.278 48.400,154.966 48.400 C 154.655 48.400,154.400 48.214,154.400 47.988 C 154.400 47.558,149.817 42.800,149.403 42.800 C 149.091 42.800,148.371 42.193,145.963 39.900 C 144.866 38.855,143.705 38.000,143.384 38.000 C 143.063 38.000,142.800 37.820,142.800 37.600 C 142.800 37.380,142.573 37.200,142.295 37.200 C 142.017 37.200,141.452 36.750,141.039 36.200 C 140.626 35.650,139.993 35.200,139.632 35.200 C 139.272 35.200,138.717 34.840,138.400 34.400 C 138.083 33.960,137.522 33.600,137.154 33.600 C 136.787 33.600,136.382 33.330,136.255 33.000 C 136.129 32.670,135.742 32.400,135.396 32.400 C 135.050 32.400,134.380 32.040,133.908 31.600 C 133.436 31.160,132.723 30.800,132.325 30.800 C 131.926 30.800,131.600 30.620,131.600 30.400 C 131.600 30.180,131.234 30.000,130.787 30.000 C 130.341 30.000,129.871 29.730,129.745 29.400 C 129.618 29.070,129.174 28.800,128.757 28.800 C 128.341 28.800,128.000 28.620,128.000 28.400 C 128.000 28.180,127.550 28.000,127.000 28.000 C 126.450 28.000,126.000 27.820,126.000 27.600 C 126.000 27.380,125.627 27.200,125.171 27.200 C 124.716 27.200,124.073 26.930,123.743 26.600 C 123.413 26.270,122.806 26.000,122.395 26.000 C 121.984 26.000,121.536 25.820,121.400 25.600 C 121.264 25.380,120.623 25.200,119.976 25.200 C 119.329 25.200,118.800 25.020,118.800 24.800 C 118.800 24.580,118.185 24.400,117.433 24.400 C 116.682 24.400,116.003 24.208,115.925 23.974 C 115.847 23.740,115.022 23.446,114.091 23.322 C 113.161 23.197,112.400 22.938,112.400 22.747 C 112.400 22.556,111.590 22.400,110.600 22.400 C 109.610 22.400,108.800 22.220,108.800 22.000 C 108.800 21.778,107.733 21.600,106.400 21.600 C 105.067 21.600,104.000 21.422,104.000 21.200 C 104.000 20.957,102.214 20.800,99.443 20.800 C 95.761 20.800,94.841 20.685,94.655 20.200 C 94.468 19.713,93.525 19.600,89.641 19.600 C 85.922 19.600,84.724 19.734,84.257 20.200 " stroke="none" fill="#047cfc" fill-rule="evenodd"></path><path id="path1" d="M306.257 20.200 C 305.796 20.661,304.632 20.800,301.229 20.800 C 298.543 20.800,296.800 20.957,296.800 21.200 C 296.800 21.425,295.675 21.600,294.224 21.600 C 292.807 21.600,291.536 21.780,291.400 22.000 C 291.264 22.220,290.353 22.400,289.376 22.400 C 288.399 22.400,287.600 22.564,287.600 22.765 C 287.600 22.966,286.881 23.251,286.002 23.400 C 285.123 23.548,284.303 23.834,284.178 24.035 C 284.054 24.236,283.423 24.400,282.776 24.400 C 282.129 24.400,281.600 24.580,281.600 24.800 C 281.600 25.020,281.161 25.200,280.624 25.200 C 280.087 25.200,279.536 25.380,279.400 25.600 C 279.264 25.820,278.623 26.000,277.976 26.000 C 277.197 26.000,276.800 26.203,276.800 26.600 C 276.800 26.973,276.422 27.200,275.800 27.200 C 275.250 27.200,274.800 27.380,274.800 27.600 C 274.800 27.820,274.500 28.000,274.134 28.000 C 273.236 28.000,270.400 29.273,270.400 29.677 C 270.400 29.855,269.950 30.000,269.400 30.000 C 268.850 30.000,268.400 30.180,268.400 30.400 C 268.400 30.620,268.216 30.800,267.991 30.800 C 267.506 30.800,264.258 32.869,264.067 33.300 C 263.993 33.465,263.678 33.600,263.367 33.600 C 263.055 33.600,262.800 33.780,262.800 34.000 C 262.800 34.220,262.440 34.400,262.000 34.400 C 261.560 34.400,261.200 34.580,261.200 34.800 C 261.200 35.020,260.930 35.200,260.600 35.200 C 260.270 35.200,260.000 35.470,260.000 35.800 C 260.000 36.133,259.644 36.400,259.200 36.400 C 258.760 36.400,258.400 36.580,258.400 36.800 C 258.400 37.020,258.212 37.200,257.982 37.200 C 257.752 37.200,257.130 37.605,256.601 38.100 C 255.164 39.444,254.461 40.000,254.199 40.000 C 253.794 40.000,252.000 41.943,252.000 42.382 C 252.000 42.612,251.812 42.800,251.582 42.800 C 251.352 42.800,250.730 43.205,250.201 43.700 C 248.582 45.214,248.052 45.600,247.593 45.600 C 247.351 45.600,247.252 45.761,247.374 45.958 C 247.496 46.155,247.326 46.419,246.998 46.546 C 246.669 46.672,246.400 47.051,246.400 47.387 C 246.400 47.724,246.220 48.000,246.000 48.000 C 245.780 48.000,245.600 48.270,245.600 48.600 C 245.600 48.930,245.412 49.200,245.182 49.200 C 244.639 49.200,242.800 51.039,242.800 51.582 C 242.800 51.812,242.607 52.000,242.371 52.000 C 241.756 52.000,240.800 53.043,240.800 53.715 C 240.800 54.030,240.170 54.956,239.400 55.773 C 238.630 56.589,238.000 57.474,238.000 57.740 C 238.000 58.006,237.640 58.483,237.200 58.800 C 236.760 59.117,236.400 59.787,236.400 60.288 C 236.400 60.832,236.158 61.200,235.800 61.200 C 235.470 61.200,235.196 61.425,235.191 61.700 C 235.186 61.975,234.830 62.650,234.400 63.200 C 233.970 63.750,233.614 64.515,233.609 64.900 C 233.604 65.285,233.330 65.600,233.000 65.600 C 232.670 65.600,232.400 65.949,232.400 66.376 C 232.400 66.803,232.220 67.264,232.000 67.400 C 231.780 67.536,231.600 67.997,231.600 68.424 C 231.600 68.851,231.420 69.200,231.200 69.200 C 230.980 69.200,230.800 69.650,230.800 70.200 C 230.800 70.750,230.620 71.200,230.400 71.200 C 230.180 71.200,230.000 71.541,230.000 71.957 C 230.000 72.374,229.730 72.818,229.400 72.945 C 229.070 73.071,228.800 73.530,228.800 73.964 C 228.800 74.398,228.620 74.864,228.400 75.000 C 228.180 75.136,228.000 75.777,228.000 76.424 C 228.000 77.071,227.820 77.600,227.600 77.600 C 227.380 77.600,227.200 78.230,227.200 79.000 C 227.200 79.978,227.019 80.400,226.600 80.400 C 226.200 80.400,226.000 80.800,226.000 81.600 C 226.000 82.260,225.820 82.800,225.600 82.800 C 225.380 82.800,225.200 83.509,225.200 84.376 C 225.200 85.243,225.020 86.064,224.800 86.200 C 224.580 86.336,224.400 87.121,224.400 87.944 C 224.400 88.767,224.217 89.623,223.993 89.847 C 222.825 91.015,221.720 120.041,222.761 122.200 C 222.973 122.640,223.261 124.032,223.401 125.294 C 223.541 126.555,223.823 127.691,224.028 127.817 C 224.233 127.944,224.400 128.847,224.400 129.824 C 224.400 130.801,224.580 131.600,224.800 131.600 C 225.020 131.600,225.200 132.309,225.200 133.176 C 225.200 134.043,225.380 134.864,225.600 135.000 C 225.820 135.136,226.000 135.667,226.000 136.181 C 226.000 136.694,226.270 137.218,226.600 137.345 C 226.951 137.479,227.200 138.079,227.200 138.787 C 227.200 139.454,227.380 140.000,227.600 140.000 C 227.820 140.000,228.000 140.529,228.000 141.176 C 228.000 141.823,228.180 142.464,228.400 142.600 C 228.620 142.736,228.800 143.197,228.800 143.624 C 228.800 144.051,229.070 144.400,229.400 144.400 C 229.735 144.400,230.000 144.756,230.000 145.205 C 230.000 145.648,230.180 146.368,230.400 146.805 C 230.620 147.242,230.980 147.958,231.200 148.395 C 231.420 148.832,231.600 149.400,231.600 149.657 C 231.600 149.914,232.050 150.714,232.600 151.436 C 233.150 152.157,233.600 152.939,233.600 153.173 C 233.600 153.408,233.780 153.600,234.000 153.600 C 234.220 153.600,234.400 153.855,234.400 154.168 C 234.400 154.881,235.698 157.194,236.100 157.197 C 236.265 157.199,236.400 157.470,236.400 157.800 C 236.400 158.130,236.580 158.400,236.800 158.400 C 237.020 158.400,237.200 158.670,237.200 159.000 C 237.200 159.330,237.380 159.600,237.600 159.600 C 237.820 159.600,238.000 159.767,238.000 159.972 C 238.000 160.176,238.630 161.011,239.400 161.827 C 240.170 162.644,240.800 163.557,240.800 163.856 C 240.800 164.155,240.980 164.400,241.200 164.400 C 241.420 164.400,241.600 164.670,241.600 165.000 C 241.600 165.330,241.793 165.600,242.029 165.600 C 242.509 165.600,243.600 166.590,243.600 167.026 C 243.600 167.181,244.050 167.725,244.600 168.235 C 245.150 168.745,245.600 169.311,245.600 169.493 C 245.600 169.675,245.960 170.083,246.400 170.400 C 246.840 170.717,247.200 171.207,247.200 171.488 C 247.200 171.770,247.337 172.000,247.504 172.000 C 247.672 172.000,248.527 172.627,249.404 173.392 C 250.282 174.158,251.148 174.788,251.329 174.792 C 251.806 174.803,252.800 175.870,252.800 176.371 C 252.800 176.607,252.953 176.800,253.141 176.800 C 253.328 176.800,254.046 177.340,254.737 178.000 C 255.428 178.660,256.178 179.200,256.403 179.200 C 256.629 179.200,257.426 179.830,258.174 180.600 C 258.921 181.370,259.908 182.000,260.367 182.000 C 260.825 182.000,261.200 182.193,261.200 182.429 C 261.200 182.664,261.470 183.127,261.800 183.457 C 262.130 183.787,262.400 183.934,262.400 183.783 C 262.400 183.632,262.844 183.799,263.386 184.154 C 263.928 184.509,264.583 184.800,264.840 184.800 C 265.098 184.800,265.725 185.250,266.235 185.800 C 266.745 186.350,267.440 186.800,267.781 186.800 C 268.121 186.800,268.400 186.980,268.400 187.200 C 268.400 187.420,268.850 187.600,269.400 187.600 C 269.950 187.600,270.400 187.780,270.400 188.000 C 270.400 188.220,270.741 188.400,271.157 188.400 C 271.574 188.400,272.018 188.670,272.145 189.000 C 272.271 189.330,272.617 189.600,272.912 189.600 C 273.208 189.600,274.195 189.960,275.106 190.400 C 276.016 190.840,277.053 191.200,277.409 191.200 C 277.766 191.200,278.327 191.470,278.657 191.800 C 278.987 192.130,279.684 192.400,280.205 192.400 C 280.726 192.400,281.264 192.580,281.400 192.800 C 281.536 193.020,282.177 193.200,282.824 193.200 C 283.471 193.200,284.000 193.380,284.000 193.600 C 284.000 193.820,284.630 194.000,285.400 194.000 C 286.170 194.000,286.800 194.180,286.800 194.400 C 286.800 194.620,287.681 194.800,288.757 194.800 C 290.128 194.800,290.783 194.980,290.945 195.400 C 291.107 195.823,291.768 196.000,293.187 196.000 C 294.294 196.000,295.200 196.167,295.200 196.371 C 295.200 196.847,300.102 197.188,310.500 197.434 C 316.098 197.567,318.800 197.496,318.800 197.215 C 318.800 196.961,320.108 196.800,322.176 196.800 C 324.033 196.800,325.664 196.620,325.800 196.400 C 325.936 196.180,327.032 196.000,328.236 196.000 C 329.813 196.000,330.490 195.832,330.655 195.400 C 330.812 194.993,331.450 194.800,332.643 194.800 C 333.609 194.800,334.400 194.620,334.400 194.400 C 334.400 194.180,335.109 194.000,335.976 194.000 C 336.843 194.000,337.664 193.820,337.800 193.600 C 337.936 193.380,338.476 193.200,339.000 193.200 C 339.524 193.200,340.064 193.020,340.200 192.800 C 340.336 192.580,340.892 192.400,341.436 192.400 C 341.980 192.400,342.529 192.130,342.655 191.800 C 342.785 191.462,343.381 191.200,344.019 191.200 C 344.643 191.200,345.264 191.020,345.400 190.800 C 345.536 190.580,345.997 190.400,346.424 190.400 C 346.851 190.400,347.200 190.220,347.200 190.000 C 347.200 189.780,347.566 189.600,348.013 189.600 C 348.459 189.600,348.929 189.330,349.055 189.000 C 349.182 188.670,349.626 188.400,350.043 188.400 C 350.459 188.400,350.800 188.220,350.800 188.000 C 350.800 187.780,351.295 187.594,351.900 187.587 C 353.101 187.573,354.400 186.778,354.400 186.056 C 354.400 185.805,354.850 185.600,355.400 185.600 C 355.950 185.600,356.400 185.442,356.400 185.249 C 356.400 185.055,356.985 184.658,357.700 184.365 C 358.415 184.073,359.219 183.646,359.486 183.417 C 360.905 182.200,361.201 182.000,361.583 182.000 C 361.812 182.000,362.000 181.820,362.000 181.600 C 362.000 181.380,362.270 181.200,362.600 181.200 C 362.930 181.200,363.200 181.020,363.200 180.800 C 363.200 180.580,363.406 180.400,363.657 180.400 C 363.908 180.400,364.629 179.860,365.260 179.200 C 365.891 178.540,366.541 178.000,366.706 178.000 C 366.870 178.000,367.769 177.280,368.703 176.400 C 369.637 175.520,370.581 174.800,370.801 174.800 C 371.020 174.800,371.200 174.665,371.200 174.500 C 371.201 173.989,373.068 172.000,373.547 172.000 C 373.796 172.000,374.000 171.838,374.000 171.640 C 374.000 171.171,376.771 168.400,377.240 168.400 C 377.438 168.400,377.600 168.170,377.600 167.888 C 377.600 167.607,377.960 167.117,378.400 166.800 C 378.840 166.483,379.200 166.012,379.200 165.754 C 379.200 165.497,379.470 165.182,379.800 165.055 C 380.130 164.929,380.400 164.589,380.400 164.301 C 380.400 164.013,380.760 163.517,381.200 163.200 C 381.640 162.883,382.003 162.438,382.008 162.212 C 382.012 161.985,382.642 161.082,383.408 160.204 C 384.173 159.327,384.800 158.292,384.800 157.904 C 384.800 157.517,384.980 157.200,385.200 157.200 C 385.420 157.200,385.600 156.949,385.600 156.643 C 385.600 156.336,385.870 155.982,386.200 155.855 C 386.530 155.729,386.800 155.349,386.800 155.013 C 386.800 154.676,386.980 154.400,387.200 154.400 C 387.420 154.400,387.600 154.040,387.600 153.600 C 387.600 153.160,387.737 152.800,387.905 152.800 C 388.221 152.800,388.486 152.356,389.734 149.739 C 390.137 148.892,390.632 147.887,390.834 147.505 C 391.035 147.123,391.200 146.558,391.200 146.248 C 391.200 145.939,391.470 145.582,391.800 145.455 C 392.130 145.329,392.400 144.859,392.400 144.413 C 392.400 143.966,392.580 143.600,392.800 143.600 C 393.020 143.600,393.200 143.150,393.200 142.600 C 393.200 142.050,393.342 141.600,393.515 141.600 C 393.688 141.600,393.874 141.015,393.928 140.300 C 393.981 139.585,394.200 138.940,394.413 138.867 C 394.626 138.793,394.800 138.118,394.800 137.367 C 394.800 136.511,394.980 136.037,395.282 136.100 C 395.738 136.194,396.104 134.867,396.662 131.100 C 396.784 130.275,397.045 129.600,397.242 129.600 C 397.439 129.600,397.600 128.625,397.600 127.433 C 397.600 126.097,397.785 125.205,398.083 125.106 C 398.382 125.006,398.626 123.814,398.723 121.972 C 398.810 120.338,399.043 118.829,399.241 118.620 C 399.709 118.125,399.712 98.800,399.244 98.800 C 399.048 98.800,398.818 97.418,398.732 95.730 C 398.634 93.788,398.398 92.599,398.089 92.496 C 397.783 92.394,397.600 91.513,397.600 90.143 C 397.600 88.785,397.448 88.047,397.200 88.200 C 396.956 88.351,396.800 87.737,396.800 86.624 C 396.800 85.621,396.620 84.800,396.400 84.800 C 396.180 84.800,396.000 84.074,396.000 83.187 C 396.000 82.123,395.796 81.497,395.400 81.345 C 395.027 81.202,394.800 80.592,394.800 79.734 C 394.800 78.915,394.637 78.453,394.400 78.600 C 394.173 78.740,394.000 78.404,394.000 77.824 C 394.000 77.261,393.820 76.800,393.600 76.800 C 393.380 76.800,393.200 76.170,393.200 75.400 C 393.200 74.630,393.020 74.000,392.800 74.000 C 392.580 74.000,392.400 73.634,392.400 73.187 C 392.400 72.741,392.130 72.271,391.800 72.145 C 391.470 72.018,391.200 71.584,391.200 71.181 C 391.200 70.777,391.020 70.336,390.800 70.200 C 390.580 70.064,390.400 69.603,390.400 69.176 C 390.400 68.749,390.220 68.400,390.000 68.400 C 389.780 68.400,389.600 68.034,389.600 67.587 C 389.600 67.141,389.330 66.671,389.000 66.545 C 388.670 66.418,388.400 65.974,388.400 65.557 C 388.400 65.141,388.220 64.800,388.000 64.800 C 387.780 64.800,387.594 64.485,387.587 64.100 C 387.572 63.235,386.671 62.000,386.056 62.000 C 385.805 62.000,385.600 61.550,385.600 61.000 C 385.600 60.450,385.420 60.000,385.200 60.000 C 384.980 60.000,384.800 59.743,384.800 59.428 C 384.800 59.114,384.170 58.189,383.400 57.373 C 382.630 56.556,382.000 55.643,382.000 55.344 C 382.000 55.045,381.820 54.800,381.600 54.800 C 381.380 54.800,381.200 54.607,381.200 54.371 C 381.200 53.818,380.182 52.800,379.629 52.800 C 379.393 52.800,379.200 52.440,379.200 52.000 C 379.200 51.560,379.020 51.200,378.800 51.200 C 378.580 51.200,378.400 51.052,378.400 50.870 C 378.400 50.387,373.681 45.600,373.205 45.600 C 372.982 45.600,372.800 45.412,372.800 45.182 C 372.800 44.733,371.002 42.800,370.585 42.800 C 370.446 42.800,369.721 42.170,368.974 41.400 C 368.226 40.630,367.384 40.000,367.103 40.000 C 366.822 40.000,366.371 39.646,366.101 39.213 C 365.830 38.780,365.040 38.131,364.346 37.772 C 363.651 37.413,362.667 36.732,362.160 36.259 C 360.590 34.796,360.049 34.400,359.617 34.400 C 359.388 34.400,359.200 34.220,359.200 34.000 C 359.200 33.780,358.750 33.600,358.200 33.600 C 357.641 33.600,357.200 33.368,357.200 33.075 C 357.200 32.786,356.570 32.302,355.800 32.000 C 355.030 31.698,354.400 31.304,354.400 31.125 C 354.400 30.946,354.040 30.800,353.600 30.800 C 353.160 30.800,352.800 30.620,352.800 30.400 C 352.800 30.180,352.350 30.000,351.800 30.000 C 351.178 30.000,350.800 29.773,350.800 29.400 C 350.800 29.027,350.422 28.800,349.800 28.800 C 349.250 28.800,348.800 28.620,348.800 28.400 C 348.800 28.180,348.440 28.000,348.000 28.000 C 347.560 28.000,347.200 27.820,347.200 27.600 C 347.200 27.380,346.827 27.200,346.371 27.200 C 345.916 27.200,345.273 26.930,344.943 26.600 C 344.613 26.270,344.006 26.000,343.595 26.000 C 343.184 26.000,342.736 25.820,342.600 25.600 C 342.464 25.380,341.823 25.200,341.176 25.200 C 340.529 25.200,340.000 25.020,340.000 24.800 C 340.000 24.580,339.370 24.400,338.600 24.400 C 337.830 24.400,337.200 24.231,337.200 24.025 C 337.200 23.818,336.388 23.527,335.395 23.378 C 334.402 23.229,333.492 22.948,333.371 22.754 C 333.251 22.559,332.544 22.400,331.800 22.400 C 331.056 22.400,330.336 22.220,330.200 22.000 C 330.064 21.780,328.894 21.600,327.600 21.600 C 326.306 21.600,325.136 21.420,325.000 21.200 C 324.860 20.973,322.879 20.800,320.425 20.800 C 317.067 20.800,315.986 20.666,315.600 20.200 C 315.216 19.738,314.156 19.600,310.980 19.600 C 307.849 19.600,306.713 19.744,306.257 20.200 " stroke="none" fill="#fcc404" fill-rule="evenodd"></path><path id="path2" d="M196.000 200.800 C 196.000 201.043,194.210 201.200,191.429 201.200 C 187.898 201.200,186.720 201.337,186.257 201.800 C 185.846 202.212,184.832 202.400,183.029 202.400 C 181.543 202.400,180.400 202.574,180.400 202.800 C 180.400 203.020,179.691 203.200,178.824 203.200 C 177.957 203.200,177.136 203.380,177.000 203.600 C 176.864 203.820,176.133 204.000,175.376 204.000 C 174.420 204.000,174.000 204.183,174.000 204.600 C 174.000 205.019,173.578 205.200,172.600 205.200 C 171.830 205.200,171.200 205.380,171.200 205.600 C 171.200 205.820,170.570 206.000,169.800 206.000 C 169.030 206.000,168.400 206.180,168.400 206.400 C 168.400 206.620,167.854 206.800,167.187 206.800 C 166.479 206.800,165.879 207.049,165.745 207.400 C 165.618 207.730,165.084 208.000,164.557 208.000 C 164.031 208.000,163.600 208.180,163.600 208.400 C 163.600 208.620,163.240 208.800,162.800 208.800 C 162.360 208.800,162.000 208.980,162.000 209.200 C 162.000 209.420,161.550 209.600,161.000 209.600 C 160.450 209.600,160.000 209.780,160.000 210.000 C 160.000 210.220,159.640 210.400,159.200 210.400 C 158.756 210.400,158.400 210.667,158.400 211.000 C 158.400 211.373,158.022 211.600,157.400 211.600 C 156.850 211.600,156.400 211.780,156.400 212.000 C 156.400 212.220,156.040 212.400,155.600 212.400 C 155.160 212.400,154.800 212.580,154.800 212.800 C 154.800 213.020,154.530 213.200,154.200 213.200 C 153.870 213.200,153.600 213.470,153.600 213.800 C 153.600 214.133,153.244 214.400,152.800 214.400 C 152.360 214.400,152.000 214.580,152.000 214.800 C 152.000 215.020,151.665 215.200,151.256 215.200 C 150.847 215.200,149.844 215.830,149.027 216.600 C 148.211 217.370,147.326 218.000,147.060 218.000 C 146.794 218.000,146.317 218.360,146.000 218.800 C 145.683 219.240,145.193 219.600,144.912 219.600 C 144.630 219.600,144.400 219.870,144.400 220.200 C 144.400 220.533,144.044 220.800,143.600 220.800 C 143.160 220.800,142.800 220.950,142.800 221.132 C 142.800 221.315,142.350 221.706,141.800 222.000 C 141.250 222.294,140.800 222.732,140.800 222.973 C 140.800 223.213,140.339 223.757,139.775 224.180 C 138.103 225.436,137.200 226.276,137.200 226.575 C 137.200 226.928,136.146 228.000,135.800 228.000 C 135.478 228.000,134.400 229.061,134.400 229.378 C 134.400 229.508,133.590 230.390,132.600 231.338 C 131.610 232.287,130.800 233.270,130.800 233.524 C 130.800 233.778,130.170 234.634,129.400 235.427 C 128.630 236.220,128.000 237.123,128.000 237.434 C 128.000 237.745,127.820 238.000,127.600 238.000 C 127.380 238.000,127.200 238.270,127.200 238.600 C 127.200 238.930,126.930 239.200,126.600 239.200 C 126.270 239.200,126.000 239.478,126.000 239.817 C 126.000 240.156,125.640 240.820,125.200 241.292 C 124.760 241.764,124.400 242.477,124.400 242.875 C 124.400 243.274,124.220 243.600,124.000 243.600 C 123.780 243.600,123.600 243.862,123.600 244.182 C 123.600 244.502,123.150 245.214,122.600 245.764 C 122.050 246.314,121.600 247.031,121.600 247.358 C 121.600 247.685,121.420 248.064,121.200 248.200 C 120.980 248.336,120.800 248.797,120.800 249.224 C 120.800 249.651,120.655 250.000,120.477 250.000 C 120.123 250.000,118.800 252.788,118.800 253.534 C 118.800 253.790,118.620 254.000,118.400 254.000 C 118.180 254.000,118.000 254.463,118.000 255.029 C 118.000 255.594,117.730 256.327,117.400 256.657 C 117.070 256.987,116.800 257.694,116.800 258.229 C 116.800 258.763,116.620 259.200,116.400 259.200 C 116.180 259.200,116.000 259.830,116.000 260.600 C 116.000 261.370,115.820 262.000,115.600 262.000 C 115.380 262.000,115.200 262.630,115.200 263.400 C 115.200 264.170,115.020 264.800,114.800 264.800 C 114.580 264.800,114.400 265.610,114.400 266.600 C 114.400 267.933,114.244 268.400,113.800 268.400 C 113.356 268.400,113.200 268.867,113.200 270.200 C 113.200 271.190,113.020 272.000,112.800 272.000 C 112.567 272.000,112.400 273.333,112.400 275.200 C 112.400 277.067,112.233 278.400,112.000 278.400 C 111.743 278.400,111.600 282.333,111.600 289.400 C 111.600 296.467,111.743 300.400,112.000 300.400 C 112.233 300.400,112.400 301.733,112.400 303.600 C 112.400 305.467,112.567 306.800,112.800 306.800 C 113.020 306.800,113.200 307.610,113.200 308.600 C 113.200 309.933,113.356 310.400,113.800 310.400 C 114.243 310.400,114.400 310.864,114.400 312.176 C 114.400 313.153,114.580 314.064,114.800 314.200 C 115.020 314.336,115.200 315.157,115.200 316.024 C 115.200 316.891,115.380 317.600,115.600 317.600 C 115.820 317.600,116.000 318.050,116.000 318.600 C 116.000 319.150,116.180 319.600,116.400 319.600 C 116.620 319.600,116.800 320.146,116.800 320.813 C 116.800 321.521,117.049 322.121,117.400 322.255 C 117.770 322.397,118.000 323.005,118.000 323.843 C 118.000 324.589,118.180 325.200,118.400 325.200 C 118.620 325.200,118.800 325.549,118.800 325.976 C 118.800 326.403,118.980 326.864,119.200 327.000 C 119.420 327.136,119.600 327.597,119.600 328.024 C 119.600 328.451,119.870 328.800,120.200 328.800 C 120.573 328.800,120.800 329.178,120.800 329.800 C 120.800 330.350,120.980 330.800,121.200 330.800 C 121.420 330.800,121.600 331.160,121.600 331.600 C 121.600 332.040,121.780 332.400,122.000 332.400 C 122.220 332.400,122.400 332.735,122.400 333.144 C 122.400 333.553,122.850 334.226,123.400 334.639 C 123.951 335.053,124.400 335.796,124.400 336.295 C 124.400 336.793,124.580 337.200,124.800 337.200 C 125.020 337.200,125.200 337.455,125.200 337.766 C 125.200 338.077,125.830 338.980,126.600 339.773 C 127.370 340.566,128.006 341.436,128.013 341.707 C 128.028 342.292,128.967 343.600,129.373 343.600 C 129.895 343.600,130.800 344.735,130.800 345.390 C 130.800 346.108,132.527 348.000,133.182 348.000 C 133.412 348.000,133.600 348.188,133.600 348.418 C 133.600 348.961,135.439 350.800,135.982 350.800 C 136.212 350.800,136.400 350.986,136.400 351.213 C 136.400 351.751,139.049 354.400,139.587 354.400 C 139.814 354.400,140.000 354.588,140.000 354.818 C 140.000 355.361,141.839 357.200,142.382 357.200 C 142.612 357.200,142.800 357.393,142.800 357.629 C 142.800 358.286,143.862 359.200,144.626 359.200 C 145.002 359.200,145.848 359.830,146.506 360.600 C 147.164 361.370,147.999 362.000,148.363 362.000 C 148.726 362.000,149.283 362.360,149.600 362.800 C 149.917 363.240,150.587 363.600,151.088 363.600 C 151.590 363.600,152.000 363.793,152.000 364.029 C 152.000 364.657,153.049 365.600,153.748 365.600 C 154.081 365.600,154.464 365.780,154.600 366.000 C 154.736 366.220,155.197 366.400,155.624 366.400 C 156.051 366.400,156.400 366.670,156.400 367.000 C 156.400 367.330,156.670 367.600,157.000 367.600 C 157.330 367.600,157.600 367.780,157.600 368.000 C 157.600 368.220,157.960 368.400,158.400 368.400 C 158.840 368.400,159.200 368.580,159.200 368.800 C 159.200 369.020,159.650 369.200,160.200 369.200 C 160.750 369.200,161.200 369.380,161.200 369.600 C 161.200 369.820,161.721 370.000,162.357 370.000 C 163.017 370.000,163.613 370.258,163.745 370.600 C 163.871 370.930,164.341 371.200,164.787 371.200 C 165.234 371.200,165.600 371.380,165.600 371.600 C 165.600 371.820,166.050 372.000,166.600 372.000 C 167.150 372.000,167.600 372.180,167.600 372.400 C 167.600 372.620,168.230 372.800,169.000 372.800 C 169.978 372.800,170.400 372.981,170.400 373.400 C 170.400 373.797,170.797 374.000,171.576 374.000 C 172.223 374.000,172.864 374.180,173.000 374.400 C 173.136 374.620,173.867 374.800,174.624 374.800 C 175.381 374.800,176.000 374.980,176.000 375.200 C 176.000 375.420,176.733 375.600,177.629 375.600 C 178.543 375.600,179.520 375.863,179.857 376.200 C 180.243 376.586,181.232 376.800,182.629 376.800 C 183.823 376.800,184.800 376.980,184.800 377.200 C 184.800 377.429,186.000 377.600,187.600 377.600 C 189.200 377.600,190.400 377.771,190.400 378.000 C 190.400 378.255,193.733 378.400,199.600 378.400 C 205.467 378.400,208.800 378.255,208.800 378.000 C 208.800 377.765,210.192 377.600,212.176 377.600 C 214.033 377.600,215.664 377.420,215.800 377.200 C 215.936 376.980,216.812 376.800,217.747 376.800 C 218.682 376.800,219.796 376.536,220.224 376.213 C 220.651 375.890,221.664 375.620,222.476 375.613 C 223.288 375.606,224.064 375.420,224.200 375.200 C 224.336 374.980,225.067 374.800,225.824 374.800 C 226.581 374.800,227.200 374.620,227.200 374.400 C 227.200 374.180,227.746 374.000,228.413 374.000 C 229.121 374.000,229.721 373.751,229.855 373.400 C 229.987 373.058,230.583 372.800,231.243 372.800 C 231.879 372.800,232.400 372.620,232.400 372.400 C 232.400 372.180,232.929 372.000,233.576 372.000 C 234.223 372.000,234.864 371.820,235.000 371.600 C 235.136 371.380,235.602 371.200,236.036 371.200 C 236.470 371.200,236.929 370.930,237.055 370.600 C 237.182 370.270,237.626 370.000,238.043 370.000 C 238.459 370.000,238.800 369.820,238.800 369.600 C 238.800 369.380,239.250 369.200,239.800 369.200 C 240.350 369.200,240.800 369.020,240.800 368.800 C 240.800 368.580,241.055 368.400,241.368 368.400 C 242.081 368.400,244.394 367.102,244.397 366.700 C 244.399 366.535,244.670 366.400,245.000 366.400 C 245.330 366.400,245.600 366.220,245.600 366.000 C 245.600 365.780,245.960 365.600,246.400 365.600 C 246.840 365.600,247.200 365.420,247.200 365.200 C 247.200 364.980,247.427 364.800,247.704 364.800 C 247.981 364.800,248.693 364.350,249.287 363.800 C 249.880 363.250,250.643 362.800,250.983 362.800 C 251.322 362.800,251.600 362.620,251.600 362.400 C 251.600 362.180,251.793 362.000,252.029 362.000 C 252.582 362.000,253.600 360.982,253.600 360.429 C 253.600 360.193,253.960 360.000,254.400 360.000 C 254.840 360.000,255.200 359.820,255.200 359.600 C 255.200 359.380,255.393 359.200,255.629 359.200 C 256.182 359.200,257.200 358.182,257.200 357.629 C 257.200 357.393,257.388 357.200,257.618 357.200 C 257.848 357.200,258.478 356.758,259.018 356.218 C 259.558 355.678,260.000 355.048,260.000 354.818 C 260.000 354.588,260.360 354.400,260.800 354.400 C 261.240 354.400,261.600 354.220,261.600 354.000 C 261.600 353.780,261.793 353.600,262.029 353.600 C 262.536 353.600,263.600 352.600,263.600 352.124 C 263.600 351.940,264.050 351.452,264.600 351.039 C 265.150 350.626,265.600 350.043,265.600 349.744 C 265.600 349.445,265.780 349.200,266.000 349.200 C 266.220 349.200,266.400 348.930,266.400 348.600 C 266.400 348.270,266.588 348.000,266.818 348.000 C 267.048 348.000,267.678 347.558,268.218 347.018 C 268.758 346.478,269.200 345.848,269.200 345.618 C 269.200 345.388,269.380 345.200,269.600 345.200 C 269.820 345.200,270.000 344.840,270.000 344.400 C 270.000 343.960,270.193 343.600,270.429 343.600 C 270.982 343.600,272.000 342.582,272.000 342.029 C 272.000 341.793,272.180 341.600,272.400 341.600 C 272.620 341.600,272.800 341.240,272.800 340.800 C 272.800 340.356,273.067 340.000,273.400 340.000 C 273.730 340.000,274.000 339.730,274.000 339.400 C 274.000 339.070,274.180 338.800,274.400 338.800 C 274.620 338.800,274.800 338.440,274.800 338.000 C 274.800 337.560,274.980 337.200,275.200 337.200 C 275.420 337.200,275.600 337.007,275.600 336.771 C 275.600 336.536,275.825 336.092,276.100 335.785 C 277.377 334.362,277.600 333.979,277.600 333.217 C 277.600 332.768,277.780 332.400,278.000 332.400 C 278.220 332.400,278.400 332.040,278.400 331.600 C 278.400 331.160,278.580 330.800,278.800 330.800 C 279.020 330.800,279.200 330.350,279.200 329.800 C 279.200 329.178,279.427 328.800,279.800 328.800 C 280.133 328.800,280.400 328.444,280.400 328.000 C 280.400 327.560,280.580 327.200,280.800 327.200 C 281.020 327.200,281.200 326.750,281.200 326.200 C 281.200 325.650,281.380 325.200,281.600 325.200 C 281.820 325.200,282.000 324.827,282.000 324.371 C 282.000 323.916,282.270 323.273,282.600 322.943 C 282.930 322.613,283.200 322.006,283.200 321.595 C 283.200 321.184,283.380 320.736,283.600 320.600 C 283.820 320.464,284.000 319.823,284.000 319.176 C 284.000 318.529,284.180 318.000,284.400 318.000 C 284.620 318.000,284.800 317.370,284.800 316.600 C 284.800 315.830,284.980 315.200,285.200 315.200 C 285.420 315.200,285.600 314.409,285.600 313.443 C 285.600 312.250,285.793 311.612,286.200 311.455 C 286.611 311.298,286.800 310.655,286.800 309.413 C 286.800 308.416,286.980 307.600,287.200 307.600 C 287.425 307.600,287.600 306.475,287.600 305.024 C 287.600 303.607,287.780 302.336,288.000 302.200 C 288.252 302.044,288.400 297.463,288.400 289.776 C 288.400 281.925,288.258 277.600,288.000 277.600 C 287.767 277.600,287.600 276.267,287.600 274.400 C 287.600 272.533,287.433 271.200,287.200 271.200 C 286.980 271.200,286.800 270.390,286.800 269.400 C 286.800 268.067,286.644 267.600,286.200 267.600 C 285.756 267.600,285.600 267.133,285.600 265.800 C 285.600 264.810,285.420 264.000,285.200 264.000 C 284.980 264.000,284.800 263.370,284.800 262.600 C 284.800 261.830,284.620 261.200,284.400 261.200 C 284.180 261.200,284.000 260.671,284.000 260.024 C 284.000 259.377,283.820 258.736,283.600 258.600 C 283.380 258.464,283.200 257.998,283.200 257.564 C 283.200 257.130,282.930 256.671,282.600 256.545 C 282.230 256.403,282.000 255.795,282.000 254.957 C 282.000 254.211,281.820 253.600,281.600 253.600 C 281.380 253.600,281.200 253.240,281.200 252.800 C 281.200 252.360,281.020 252.000,280.800 252.000 C 280.580 252.000,280.400 251.550,280.400 251.000 C 280.400 250.378,280.173 250.000,279.800 250.000 C 279.427 250.000,279.200 249.622,279.200 249.000 C 279.200 248.450,279.020 248.000,278.800 248.000 C 278.580 248.000,278.400 247.640,278.400 247.200 C 278.400 246.760,278.220 246.400,278.000 246.400 C 277.780 246.400,277.594 246.085,277.587 245.700 C 277.572 244.835,276.671 243.600,276.056 243.600 C 275.805 243.600,275.600 243.150,275.600 242.600 C 275.600 242.050,275.420 241.600,275.200 241.600 C 274.980 241.600,274.800 241.355,274.800 241.055 C 274.800 240.755,274.391 240.080,273.891 239.555 C 273.392 239.030,272.731 238.105,272.424 237.500 C 272.116 236.895,271.715 236.400,271.532 236.400 C 271.350 236.400,271.200 236.130,271.200 235.800 C 271.200 235.470,271.007 235.200,270.771 235.200 C 270.174 235.200,269.200 234.164,269.200 233.529 C 269.199 232.954,267.483 230.800,267.025 230.800 C 266.672 230.800,265.600 229.747,265.600 229.400 C 265.600 229.066,264.534 228.000,264.200 228.000 C 263.872 228.000,262.800 226.936,262.800 226.610 C 262.800 226.289,260.911 224.400,260.590 224.400 C 260.264 224.400,259.200 223.328,259.200 223.000 C 259.200 222.672,258.136 221.600,257.810 221.600 C 257.675 221.600,257.114 221.150,256.564 220.600 C 256.014 220.050,255.390 219.600,255.178 219.600 C 254.966 219.600,254.228 219.060,253.537 218.400 C 252.846 217.740,252.136 217.200,251.959 217.200 C 251.781 217.200,251.186 216.750,250.636 216.200 C 250.086 215.650,249.350 215.200,249.000 215.200 C 248.650 215.200,247.914 214.750,247.364 214.200 C 246.814 213.650,246.102 213.200,245.782 213.200 C 245.462 213.200,245.200 213.020,245.200 212.800 C 245.200 212.580,244.840 212.400,244.400 212.400 C 243.960 212.400,243.600 212.220,243.600 212.000 C 243.600 211.780,243.150 211.600,242.600 211.600 C 241.978 211.600,241.600 211.373,241.600 211.000 C 241.600 210.667,241.244 210.400,240.800 210.400 C 240.360 210.400,240.000 210.220,240.000 210.000 C 240.000 209.780,239.550 209.600,239.000 209.600 C 238.450 209.600,238.000 209.420,238.000 209.200 C 238.000 208.980,237.640 208.800,237.200 208.800 C 236.760 208.800,236.400 208.620,236.400 208.400 C 236.400 208.180,235.950 208.000,235.400 208.000 C 234.778 208.000,234.400 207.773,234.400 207.400 C 234.400 206.981,233.978 206.800,233.000 206.800 C 232.230 206.800,231.600 206.620,231.600 206.400 C 231.600 206.180,230.970 206.000,230.200 206.000 C 229.430 206.000,228.800 205.820,228.800 205.600 C 228.800 205.380,228.462 205.200,228.049 205.200 C 227.636 205.200,227.074 204.930,226.800 204.600 C 226.514 204.255,225.642 204.000,224.751 204.000 C 223.898 204.000,223.200 203.820,223.200 203.600 C 223.200 203.380,222.390 203.200,221.400 203.200 C 220.410 203.200,219.600 203.020,219.600 202.800 C 219.600 202.574,218.457 202.400,216.971 202.400 C 215.168 202.400,214.154 202.212,213.743 201.800 C 213.280 201.337,212.102 201.200,208.571 201.200 C 205.790 201.200,204.000 201.043,204.000 200.800 C 204.000 200.560,202.400 200.400,200.000 200.400 C 197.600 200.400,196.000 200.560,196.000 200.800 " stroke="none" fill="#fc1c44" fill-rule="evenodd"></path><path id="path3" d="" stroke="none" fill="#3c70100" fill-rule="evenodd"></path><path id="path4" d="" stroke="none" fill="#bc70a4" fill-rule="evenodd"></path></g></svg>